<?xml version="1.0" encoding="utf-8"?>
<!-- Generator: Adobe Illustrator 25.4.1, SVG Export Plug-In . SVG Version: 6.00 Build 0)  -->
<svg version="1.1" id="图层_1" xmlns="http://www.w3.org/2000/svg" xmlns:xlink="http://www.w3.org/1999/xlink" x="0px" y="0px"
	 viewBox="0 0 1930 715" style="enable-background:new 0 0 1930 715;" xml:space="preserve">
<style type="text/css">
	.st0{fill:url(#SVGID_1_);}
	.st1{fill:url(#SVGID_00000031185975143457215400000017406379973281962670_);}
	.st2{fill:url(#SVGID_00000115502499837542250360000010345106845671234230_);}
	.st3{fill:url(#SVGID_00000146482843372439886560000013901717046742575797_);}
	.st4{fill:url(#SVGID_00000004528832187233327780000005840073174060165558_);}
	.st5{fill:url(#SVGID_00000137823000321968902420000011176017891521041575_);}
	.st6{fill:url(#SVGID_00000036930927605960066300000017709684789320569022_);}
	.st7{fill:url(#SVGID_00000137829353771977206660000008336896466894383002_);}
	.st8{fill:url(#SVGID_00000118384595638805298530000006884437591491109021_);}
	.st9{fill:url(#SVGID_00000047039999672700113560000008228279106013610921_);}
	.st10{display:none;enable-background:new    ;}
	.st11{font-family:'AvenirNextW1G-Bold';}
	.st12{font-size:271.9816px;}
	.st13{fill:url(#SVGID_00000049183044003361779830000016980610174489118896_);}
	.st14{fill:url(#SVGID_00000058588449142678388740000011488557906530725767_);}
	.st15{fill:url(#SVGID_00000168098711393532452580000009105421885055001245_);}
	.st16{fill:url(#SVGID_00000013181124624232394800000000080090403893823421_);}
	.st17{fill:url(#SVGID_00000010275857313487437370000007760143061573525429_);}
	.st18{fill:url(#SVGID_00000083057369706936073200000017915663774130891921_);}
	.st19{fill:url(#SVGID_00000052077010226346144540000005308759554084815780_);}
	.st20{fill:url(#SVGID_00000055669178642292368070000000045822356443340213_);}
	.st21{fill:url(#SVGID_00000152966686321770064880000012598679584565850812_);}
</style>
<linearGradient id="SVGID_1_" gradientUnits="userSpaceOnUse" x1="290.6085" y1="253.4699" x2="399.3806" y2="413.969" gradientTransform="matrix(1 0 0 -1 0 716)">
	<stop  offset="0.2216" style="stop-color:#23B7F7"/>
	<stop  offset="0.3238" style="stop-color:#21A8F3"/>
	<stop  offset="0.5201" style="stop-color:#1D81EA"/>
	<stop  offset="0.7884" style="stop-color:#1742DA"/>
	<stop  offset="0.8182" style="stop-color:#163BD8"/>
</linearGradient>
<path class="st0" d="M364.2,330.9l23.7-33.9c0,0,27.5,37,6.6,96.3c-19.5,52.8-71.7,70.2-103,64.6c-31.3-5.6-59.3-27.4-71.2-43.9
	c2.9,27.9,51.7,80.5,111.9,71.4s108.5-62.2,98.6-138.9c-8-50.4-22.6-60.7-22.6-60.7s12.5-7.6,36-2.7c0.2-5.6-64.2-46.6-90.6-50.6
	C361.2,269.1,364.2,330.9,364.2,330.9z"/>
<linearGradient id="SVGID_00000132797857541748836990000008983197009080708022_" gradientUnits="userSpaceOnUse" x1="407.2929" y1="438.0229" x2="286.4352" y2="243.2001" gradientTransform="matrix(1 0 0 -1 0 716)">
	<stop  offset="0.2216" style="stop-color:#23B7F7"/>
	<stop  offset="0.3238" style="stop-color:#21A8F3"/>
	<stop  offset="0.5201" style="stop-color:#1D81EA"/>
	<stop  offset="0.7884" style="stop-color:#1742DA"/>
	<stop  offset="0.8182" style="stop-color:#163BD8"/>
</linearGradient>
<path style="fill:url(#SVGID_00000132797857541748836990000008983197009080708022_);" d="M373.9,296.2l16.4-14.5
	c0,0,45.6,50.2,15.2,123.7c-21,56.8-82.6,69.3-113.9,63.6s-63.3-33.1-71.2-55c2.9,27.9,51.6,80.5,111.9,71.4s108.5-62.2,98.6-138.9
	c-8-50.4-22.6-60.7-22.6-60.7s12.5-7.6,36-2.7c0.2-5.6-64.2-46.6-90.6-50.6C364.5,267.6,373.9,296.2,373.9,296.2z"/>
<linearGradient id="SVGID_00000171692903409632212340000009478435594101152695_" gradientUnits="userSpaceOnUse" x1="294.4247" y1="435.7183" x2="219.1298" y2="346.0376" gradientTransform="matrix(1 0 0 -1 0 716)">
	<stop  offset="0.2216" style="stop-color:#55A013"/>
	<stop  offset="0.4504" style="stop-color:#46970E"/>
	<stop  offset="0.8182" style="stop-color:#268503"/>
</linearGradient>
<path style="fill:url(#SVGID_00000171692903409632212340000009478435594101152695_);" d="M216.8,374.9c0,0,8.6-63.1,98-82.5
	c-2.6-8.5-15.2-23.2-23.6-25.3C283.9,269.3,216.9,305.7,216.8,374.9z"/>
<linearGradient id="SVGID_00000073700369265590655600000013369242484215870394_" gradientUnits="userSpaceOnUse" x1="294.735" y1="432.572" x2="246.4293" y2="398.3724" gradientTransform="matrix(1 0 0 -1 0 716)">
	<stop  offset="0.2216" style="stop-color:#D5E955"/>
	<stop  offset="0.2794" style="stop-color:#C6E14D"/>
	<stop  offset="0.3904" style="stop-color:#9FCA3A"/>
	<stop  offset="0.5421" style="stop-color:#60A71A"/>
	<stop  offset="0.5881" style="stop-color:#4C9B10"/>
	<stop  offset="0.9844" style="stop-color:#3E930B"/>
</linearGradient>
<path style="fill:url(#SVGID_00000073700369265590655600000013369242484215870394_);" d="M290.5,272.7c0,0,13.2,10.8,16.7,15.8
	c-14.4,3.6-50.5,15.8-65.4,32.2C254,300.1,290.6,297.8,290.5,272.7z"/>
<linearGradient id="SVGID_00000075120813612825267890000003285949650400638877_" gradientUnits="userSpaceOnUse" x1="374.0762" y1="368.0222" x2="309.6563" y2="291.2944" gradientTransform="matrix(0.8139 0.242 0.251 -0.8442 -90.1719 549.8868)">
	<stop  offset="0.2216" style="stop-color:#55A013"/>
	<stop  offset="0.4504" style="stop-color:#46970E"/>
	<stop  offset="0.8182" style="stop-color:#268503"/>
</linearGradient>
<path style="fill:url(#SVGID_00000075120813612825267890000003285949650400638877_);" d="M232.2,382c0,0,19.6-43.8,86-39.3
	c0-6.7-5.6-19.9-11-23.2C301.7,319.7,247.2,332.1,232.2,382z"/>
<linearGradient id="SVGID_00000161611592935528577910000007708383277274686887_" gradientUnits="userSpaceOnUse" x1="374.1829" y1="365.5663" x2="330.939" y2="339.219" gradientTransform="matrix(0.8139 0.242 0.251 -0.8442 -90.1719 549.8868)">
	<stop  offset="0.2216" style="stop-color:#D5E955"/>
	<stop  offset="0.284" style="stop-color:#C6E04E"/>
	<stop  offset="0.4039" style="stop-color:#9FCA3A"/>
	<stop  offset="0.5678" style="stop-color:#60A61B"/>
	<stop  offset="0.6294" style="stop-color:#47980E"/>
	<stop  offset="1" style="stop-color:#3D920B"/>
</linearGradient>
<path style="fill:url(#SVGID_00000161611592935528577910000007708383277274686887_);" d="M305.5,323.4c0,0,6.9,10.6,8.2,14.9
	c-10.8-0.4-38.5,1-52.4,9.7C275.2,338.9,293.7,343.3,305.5,323.4z"/>
<radialGradient id="SVGID_00000103222947282563986600000003663972456661627015_" cx="283.856" cy="470.436" r="284.0421" fx="270.4647" fy="506.6147" gradientTransform="matrix(1 0 0 -1 0 716)" gradientUnits="userSpaceOnUse">
	<stop  offset="1.118128e-03" style="stop-color:#D1E454"/>
	<stop  offset="0.1509" style="stop-color:#C2DC4C"/>
	<stop  offset="0.4387" style="stop-color:#9BC738"/>
	<stop  offset="0.8317" style="stop-color:#5CA518"/>
	<stop  offset="0.9968" style="stop-color:#40960A"/>
</radialGradient>
<path style="fill:url(#SVGID_00000103222947282563986600000003663972456661627015_);" d="M355.7,501.8
	c-85.6,34.4-173.1,21.2-224.6-30.2c-71.1-71-79.5-205.1,26.6-299.7c4.6,6.1,31,51,132.9,67.9C158.8,284.5,146.4,515.7,355.7,501.8z"
	/>
<g>
	
		<linearGradient id="SVGID_00000029749701221607317530000012974301220094801306_" gradientUnits="userSpaceOnUse" x1="257.7473" y1="392.3671" x2="115.6727" y2="305.8049" gradientTransform="matrix(1 0 0 -1 0 716)">
		<stop  offset="0.2216" style="stop-color:#D5E955"/>
		<stop  offset="0.284" style="stop-color:#C6E04E"/>
		<stop  offset="0.4039" style="stop-color:#9FCA3A"/>
		<stop  offset="0.5678" style="stop-color:#60A61B"/>
		<stop  offset="0.6294" style="stop-color:#47980E"/>
		<stop  offset="1" style="stop-color:#EFFFF5"/>
	</linearGradient>
	<path style="fill:url(#SVGID_00000029749701221607317530000012974301220094801306_);" d="M286.5,500.4
		c-70.7-15.2-164.2-92-62.9-236.9c0.2-0.4,0.2-0.8-0.2-1.1c-5.7-4.6-9-11.9-1.4-22.7c0.3-0.4,0.2-0.9-0.3-1.2
		c-20.6-10.9-46-26.4-54.2-31.5c-0.3-0.2-0.6-0.1-0.9,0c-6.6,4.7-17.5,7-24.3,2.8c-0.2-0.1-0.4-0.2-0.6-0.1
		c-19.1,6.1-125.5,188.6,44.3,277.9c20.4,10.8,45.5,17.8,76.6,20.8c1,0.1,0.9,1.6-0.1,1.6c-127.8-4.3-253-133-125-307.2
		c1.1-1.5,3.2-2,4.8-1c6.8,3.9,14.3,4.4,22.4-3c1.1-0.9,2.6-1.1,3.8-0.3c12.5,8.3,47.8,27.6,59.8,34.3c1.9,1.1,2.4,3.6,1,5.3
		c-5.8,6.7-8.6,15.6,0.4,22.7c1.5,1.2,1.7,3.4,0.4,4.8c-24.5,26.6-111.9,184.7,56.9,233.2C287.8,499.1,287.5,500.6,286.5,500.4z"/>
	
		<linearGradient id="SVGID_00000025416570042295619340000000982694078667243674_" gradientUnits="userSpaceOnUse" x1="181.8598" y1="484.6148" x2="187.3061" y2="210.5856" gradientTransform="matrix(1 0 0 -1 0 716)">
		<stop  offset="0" style="stop-color:#DAEB58"/>
		<stop  offset="0.1558" style="stop-color:#CDDC59"/>
		<stop  offset="0.4551" style="stop-color:#ABB55B"/>
		<stop  offset="0.864" style="stop-color:#74765F"/>
		<stop  offset="1" style="stop-color:#606060"/>
	</linearGradient>
	<path style="fill:url(#SVGID_00000025416570042295619340000000982694078667243674_);" d="M286.5,500.4
		c-70.7-15.2-164.2-92-62.9-236.9c0.2-0.4,0.2-0.8-0.2-1.1c-5.7-4.6-9-11.9-1.4-22.7c0.3-0.4,0.2-0.9-0.3-1.2
		c-20.6-10.9-46-26.4-54.2-31.5c-0.3-0.2-0.6-0.1-0.9,0c-6.6,4.7-17.5,7-24.3,2.8c-0.2-0.1-0.4-0.2-0.6-0.1
		c-19.1,6.1-125.5,188.6,44.3,277.9c20.4,10.8,45.5,17.8,76.6,20.8c1,0.1,0.9,1.6-0.1,1.6c-127.8-4.3-253-133-125-307.2
		c1.1-1.5,3.2-2,4.8-1c6.8,3.9,14.3,4.4,22.4-3c1.1-0.9,2.6-1.1,3.8-0.3c12.5,8.3,47.8,27.6,59.8,34.3c1.9,1.1,2.4,3.6,1,5.3
		c-5.8,6.7-8.6,15.6,0.4,22.7c1.5,1.2,1.7,3.4,0.4,4.8c-24.5,26.6-111.9,184.7,56.9,233.2C287.8,499.1,287.5,500.6,286.5,500.4z"/>
</g>
<radialGradient id="SVGID_00000083801343995561496400000000984218264084227480_" cx="164" cy="393.3333" r="100.5988" gradientTransform="matrix(1 0 0 -1 0 716)" gradientUnits="userSpaceOnUse">
	<stop  offset="0.372" style="stop-color:#248303"/>
	<stop  offset="0.7478" style="stop-color:#74B224"/>
	<stop  offset="0.9444" style="stop-color:#65AA1D"/>
	<stop  offset="1" style="stop-color:#60A71A"/>
</radialGradient>
<path style="fill:url(#SVGID_00000083801343995561496400000000984218264084227480_);" d="M141.5,318.6c15.5-0.3,39.5,45,22.7,88.6
	c-13.8,35.8-56.2-0.4-56.3-38.6C107.9,342.5,117.7,319.1,141.5,318.6z"/>
<g>
	<text transform="matrix(1 0 0 1 490.334 457.2197)" class="st10 st11 st12">Stockwise</text>
	<g>
		
			<linearGradient id="SVGID_00000163066024357723649190000016731276320758440375_" gradientUnits="userSpaceOnUse" x1="568.6603" y1="499.8723" x2="567.7671" y2="309.6186" gradientTransform="matrix(1 0 0 -1 0 716)">
			<stop  offset="0" style="stop-color:#23B7F7"/>
			<stop  offset="0.1713" style="stop-color:#21A8F3"/>
			<stop  offset="0.5003" style="stop-color:#1D81EA"/>
			<stop  offset="0.9501" style="stop-color:#1742DA"/>
			<stop  offset="1" style="stop-color:#163BD8"/>
		</linearGradient>
		<path style="fill:url(#SVGID_00000163066024357723649190000016731276320758440375_);" d="M566.5,462.1c-14,0-27.4-2.5-40.2-7.3
			c-12.9-4.9-23.5-11.7-31.8-20.4l30.5-31c4.7,6,10.9,10.9,18.6,14.7c7.7,3.8,15.4,5.7,23,5.7c7.8,0,14.2-1.7,19.2-5
			c5-3.4,7.5-8.7,7.5-15.9c0-6.7-3.1-11.8-9.4-15.2c-6.3-3.4-15.8-7.3-28.7-11.6c-12.9-4.3-23.3-9.3-31.4-15.1
			c-8.1-5.8-13.3-11.7-15.6-17.8c-2.4-6.1-3.6-11.2-3.8-15.5s-0.3-6.8-0.3-7.5c0-13.4,3.6-24.7,10.7-33.7
			c7.2-9.1,16.4-15.8,27.7-20.1s23.3-6.5,36-6.5c11.2,0,22.5,2,33.9,6.1c11.3,4.1,21.1,9.9,29.2,17.5l-29.7,31.3
			c-3.8-4.9-8.9-8.9-15.4-12c-6.4-3.1-12.7-4.6-18.9-4.6c-7.2,0-13.6,1.5-18.9,4.5c-5.3,3-8,7.9-8,14.8c0,6.4,2.7,11,8.2,14
			c5.4,3,14.3,6.4,26.7,10.2s21.8,7.8,28.3,11.8c6.5,4.1,11.8,8.6,15.9,13.6c4.1,5,6.8,9.7,8,14.1c1.3,4.5,2,8.1,2.2,10.9
			c0.2,2.8,0.3,4.8,0.3,5.9c0,20.3-7,36.1-21.1,47.3C605.1,456.5,587.5,462.1,566.5,462.1z"/>
		
			<linearGradient id="SVGID_00000114040464302063501780000018271127490986813574_" gradientUnits="userSpaceOnUse" x1="700.7416" y1="499.2522" x2="699.8484" y2="308.9985" gradientTransform="matrix(1 0 0 -1 0 716)">
			<stop  offset="0" style="stop-color:#23B7F7"/>
			<stop  offset="0.1713" style="stop-color:#21A8F3"/>
			<stop  offset="0.5003" style="stop-color:#1D81EA"/>
			<stop  offset="0.9501" style="stop-color:#1742DA"/>
			<stop  offset="1" style="stop-color:#163BD8"/>
		</linearGradient>
		<path style="fill:url(#SVGID_00000114040464302063501780000018271127490986813574_);" d="M721.5,460.5c-17.2,0-29.6-4.2-37-12.5
			c-7.4-8.3-11.2-20.2-11.2-35.6v-57.1h-21.8v-33.5h21.5v-35.6h43.8v35.6h31.8v33.5h-31.8v51.7c0,6.5,1.3,11.3,3.8,14.4
			c2.5,3.1,6.9,4.6,13.1,4.6c5.3,0,9.6-0.7,13-2.2l0.5,32.6c-3.1,1.1-7,2-11.8,2.9C730.7,460.1,726,460.5,721.5,460.5z"/>
		
			<linearGradient id="SVGID_00000069368265956349775640000001010923172171221170_" gradientUnits="userSpaceOnUse" x1="838.8704" y1="498.6037" x2="837.9772" y2="308.35" gradientTransform="matrix(1 0 0 -1 0 716)">
			<stop  offset="0" style="stop-color:#23B7F7"/>
			<stop  offset="0.1713" style="stop-color:#21A8F3"/>
			<stop  offset="0.5003" style="stop-color:#1D81EA"/>
			<stop  offset="0.9501" style="stop-color:#1742DA"/>
			<stop  offset="1" style="stop-color:#163BD8"/>
		</linearGradient>
		<path style="fill:url(#SVGID_00000069368265956349775640000001010923172171221170_);" d="M837.9,461.6c-21.2,0-39-6.8-53.4-20.3
			c-14.4-13.5-21.6-31-21.6-52.4c0-21.4,7.2-38.7,21.5-51.8c14.3-13.1,32.2-19.7,53.6-19.7c21.6,0,39.5,6.6,53.8,19.7
			s21.5,30.4,21.5,51.8c0,21.4-7.2,38.9-21.8,52.4C877,454.8,859.1,461.6,837.9,461.6z M838.2,424c10,0,17.8-3.5,23.5-10.5
			c5.7-7,8.6-15.2,8.6-24.6c0-9.2-2.9-17.3-8.7-24.2c-5.8-6.9-13.7-10.3-23.7-10.3s-17.8,3.4-23.4,10.2c-5.6,6.8-8.4,14.9-8.4,24.3
			c0,9.4,2.9,17.6,8.6,24.6C820.4,420.5,828.2,424,838.2,424z"/>
		
			<linearGradient id="SVGID_00000031182794319360551940000017169995273657381566_" gradientUnits="userSpaceOnUse" x1="998.6473" y1="497.8536" x2="997.754" y2="307.5999" gradientTransform="matrix(1 0 0 -1 0 716)">
			<stop  offset="0" style="stop-color:#23B7F7"/>
			<stop  offset="0.1713" style="stop-color:#21A8F3"/>
			<stop  offset="0.5003" style="stop-color:#1D81EA"/>
			<stop  offset="0.9501" style="stop-color:#1742DA"/>
			<stop  offset="1" style="stop-color:#163BD8"/>
		</linearGradient>
		<path style="fill:url(#SVGID_00000031182794319360551940000017169995273657381566_);" d="M1010.6,461.6
			c-22.1,0-40.3-6.6-54.5-19.7c-14.2-13.1-21.3-30.6-21.3-52.4c0-21.4,7.2-38.8,21.5-52.1c14.3-13.3,32.4-20,54.1-20
			c9.6,0,19.1,1.7,28.4,5c9.3,3.4,16.6,7.8,21.9,13.2l-25.8,29.9c-2.4-3.3-5.8-5.9-10.2-7.9c-4.5-2-8.9-3-13.5-3
			c-9.2,0-16.8,3.4-22.6,10.2c-5.8,6.8-8.7,15-8.7,24.6c0,9.6,2.9,17.8,8.7,24.5c5.8,6.7,13.5,10.1,23.1,10.1
			c4.7,0,9.2-0.9,13.6-2.7s7.9-4.3,10.6-7.3l24.8,30.2c-5.6,5.4-12.9,9.7-21.8,12.8C1030,460,1020.6,461.6,1010.6,461.6z"/>
		
			<linearGradient id="SVGID_00000068640444355125752900000005245589933223229585_" gradientUnits="userSpaceOnUse" x1="1151.8813" y1="497.1342" x2="1150.9882" y2="306.8805" gradientTransform="matrix(1 0 0 -1 0 716)">
			<stop  offset="0" style="stop-color:#23B7F7"/>
			<stop  offset="0.1713" style="stop-color:#21A8F3"/>
			<stop  offset="0.5003" style="stop-color:#1D81EA"/>
			<stop  offset="0.9501" style="stop-color:#1742DA"/>
			<stop  offset="1" style="stop-color:#163BD8"/>
		</linearGradient>
		<path style="fill:url(#SVGID_00000068640444355125752900000005245589933223229585_);" d="M1078.6,457.2V251.6h44.9v125.1h0.8
			l43.2-54.9h54.1l-52.2,61.2l54.4,74.2h-55.2l-44.3-65h-0.8v65L1078.6,457.2L1078.6,457.2z"/>
		
			<linearGradient id="SVGID_00000050645216818097506240000002835894394139449519_" gradientUnits="userSpaceOnUse" x1="1341.699" y1="496.243" x2="1340.8058" y2="305.9893" gradientTransform="matrix(1 0 0 -1 0 716)">
			<stop  offset="0" style="stop-color:#23B7F7"/>
			<stop  offset="0.1713" style="stop-color:#21A8F3"/>
			<stop  offset="0.5003" style="stop-color:#1D81EA"/>
			<stop  offset="0.9501" style="stop-color:#1742DA"/>
			<stop  offset="1" style="stop-color:#163BD8"/>
		</linearGradient>
		<path style="fill:url(#SVGID_00000050645216818097506240000002835894394139449519_);" d="M1269.6,457.2l-46.8-135.4h48.1
			l23.4,85.7h0.8l24.2-85.7h44.9l25,85.7h0.5l23.7-85.7h46.2l-47.1,135.5h-44.9l-26.7-84.3h-0.5l-26.1,84.3L1269.6,457.2
			L1269.6,457.2z"/>
		
			<linearGradient id="SVGID_00000127740616797791775350000009497953508523092896_" gradientUnits="userSpaceOnUse" x1="1500.1825" y1="495.499" x2="1499.2893" y2="305.2453" gradientTransform="matrix(1 0 0 -1 0 716)">
			<stop  offset="0" style="stop-color:#23B7F7"/>
			<stop  offset="0.1713" style="stop-color:#21A8F3"/>
			<stop  offset="0.5003" style="stop-color:#1D81EA"/>
			<stop  offset="0.9501" style="stop-color:#1742DA"/>
			<stop  offset="1" style="stop-color:#163BD8"/>
		</linearGradient>
		<path style="fill:url(#SVGID_00000127740616797791775350000009497953508523092896_);" d="M1499.9,303c-7.1,0-13.1-2.4-18.1-7.2
			c-5-4.8-7.5-10.6-7.5-17.3c0-6.5,2.5-12.2,7.5-17.1c5-4.9,11-7.3,18.1-7.3s13.1,2.4,18.1,7.2c5,4.8,7.5,10.6,7.5,17.3
			c0,6.9-2.5,12.7-7.5,17.4C1513,300.6,1507,303,1499.9,303z M1477.6,457.2V321.8h44.6v135.4L1477.6,457.2L1477.6,457.2z"/>
		
			<linearGradient id="SVGID_00000168102144456220101630000015347635953598449311_" gradientUnits="userSpaceOnUse" x1="1603.2217" y1="495.0152" x2="1602.3285" y2="304.7615" gradientTransform="matrix(1 0 0 -1 0 716)">
			<stop  offset="0" style="stop-color:#23B7F7"/>
			<stop  offset="0.1713" style="stop-color:#21A8F3"/>
			<stop  offset="0.5003" style="stop-color:#1D81EA"/>
			<stop  offset="0.9501" style="stop-color:#1742DA"/>
			<stop  offset="1" style="stop-color:#163BD8"/>
		</linearGradient>
		<path style="fill:url(#SVGID_00000168102144456220101630000015347635953598449311_);" d="M1602.2,461.6c-11.2,0-22.2-1.8-32.8-5.4
			s-19.4-8.8-26.2-15.5l25-26.4c4.2,4.5,9.2,8.2,15,11c5.8,2.8,11.9,4.2,18.2,4.2c4.3,0,8.1-1,11.3-2.9c3.2-1.9,4.8-4.9,4.8-8.8
			c0-4.4-2.3-7.5-6.9-9.4c-4.6-1.9-11-3.9-19-5.9c-8.1-2-15.3-4.8-21.8-8.3c-6.4-3.5-11.1-7.9-13.9-13.2c-2.8-5.3-4.3-9.5-4.5-12.6
			c-0.2-3.2-0.3-5-0.3-5.6c0-10.1,2.8-18.6,8.3-25.4c5.5-6.8,12.6-11.8,21.2-15.1s17.5-4.9,26.8-4.9c10.3,0,20.3,1.6,30.1,4.9
			c9.7,3.3,17.8,8,24.3,14.1l-24.5,25.3c-3.8-3.6-8.2-6.6-13.1-8.8s-10-3.4-15.2-3.4c-4.7,0-8.7,0.9-12,2.7
			c-3.3,1.8-4.9,4.5-4.9,8.2c0,3.8,2.1,6.5,6.3,8.2c4.2,1.6,9.9,3.4,17.3,5.2c7.3,1.8,14.3,4.2,20.9,7.1s11.8,6.7,15.5,11.4
			c3.7,4.7,6,9.1,6.8,13.1c0.8,4,1.2,7.3,1.2,10.1c0,15.8-5.7,27.4-17,35C1631.8,457.8,1618.1,461.6,1602.2,461.6z"/>
		
			<linearGradient id="SVGID_00000171000860841786170120000018017588430596778633_" gradientUnits="userSpaceOnUse" x1="1750.5146" y1="494.3237" x2="1749.6215" y2="304.07" gradientTransform="matrix(1 0 0 -1 0 716)">
			<stop  offset="0" style="stop-color:#23B7F7"/>
			<stop  offset="0.1713" style="stop-color:#21A8F3"/>
			<stop  offset="0.5003" style="stop-color:#1D81EA"/>
			<stop  offset="0.9501" style="stop-color:#1742DA"/>
			<stop  offset="1" style="stop-color:#163BD8"/>
		</linearGradient>
		<path style="fill:url(#SVGID_00000171000860841786170120000018017588430596778633_);" d="M1753.7,461.6
			c-21.6,0-39.4-6.5-53.4-19.5c-14.1-13-21.1-30.3-21.1-52.1c0-21.6,6.9-39.1,20.8-52.5c13.9-13.4,31.3-20.1,52.4-20.1
			c20.5,0,36.9,6.6,49.4,19.9c12.4,13.2,18.6,31.2,18.6,53.9c0,4.9-0.1,8.4-0.3,10.6h-98.2c0.7,7.2,4.3,13.3,10.6,18.2
			c6.3,4.9,13.6,7.3,21.8,7.3s14.6-1.5,19.2-4.5s8.2-6.2,10.7-9.7l31,19.6c-6.5,9.2-15,16.4-25.4,21.4
			C1779.3,459.1,1767.3,461.6,1753.7,461.6z M1721.8,374h57.4c0-7.4-2.3-13.6-6.9-18.5c-4.6-4.9-11.2-7.3-19.7-7.3
			c-8.3,0-15.4,2.5-21.2,7.6C1725.6,360.9,1722.4,366.9,1721.8,374z"/>
	</g>
</g>
</svg>
